<svg
	class="skill-icon"
	width="50"
	height="51"
	viewBox="0 0 50 51"
	fill="none"
	xmlns="http://www.w3.org/2000/svg"
>
	<path
		d="M6.36475 23.7178C6.77128 20.0942 8.22451 16.6676 10.5469 13.8565C12.8692 11.0454 15.9601 8.97165 19.4418 7.88863C16.6087 12.7094 14.964 18.1354 14.6439 23.7178H6.36475ZM22.9002 2.9803C11.2293 4.03863 2.0835 13.8532 2.0835 25.8011C2.0835 37.749 11.2293 47.5636 22.9002 48.624L22.9168 48.6449L23.8022 48.6866C24.2013 48.7062 24.6007 48.7166 25.0002 48.7178C25.3997 48.7176 25.7991 48.7071 26.1981 48.6866L27.0835 48.6449L27.1002 48.624C38.771 47.5595 47.9168 37.749 47.9168 25.8011C47.9168 13.8532 38.771 4.03863 27.1002 2.9803L27.0835 2.95947L26.196 2.91572C25.3993 2.87469 24.601 2.87469 23.8043 2.91572L22.9168 2.95738L22.9002 2.9803ZM25.0043 7.05113C28.642 11.8869 30.7888 17.6794 31.1814 23.7178H18.8189C19.2121 17.6791 21.3597 11.8866 24.9981 7.05113H25.0002H25.0043ZM14.6418 27.8845C14.9752 33.6345 16.6835 39.0199 19.4397 43.7136C15.9584 42.6303 12.8679 40.5564 10.546 37.7453C8.22404 34.9343 6.77112 31.5078 6.36475 27.8845H14.6418ZM24.996 44.5511C21.3576 39.7156 19.21 33.9231 18.8168 27.8845H31.1793C30.7861 33.9231 28.6385 39.7156 25.0002 44.5511H24.996ZM30.5585 43.7136C33.3908 38.8927 35.0348 33.4667 35.3543 27.8845H43.6335C43.2271 31.5078 41.7742 34.9343 39.4522 37.7453C37.1303 40.5564 34.0399 42.6303 30.5585 43.7136ZM35.3543 23.7178C35.021 17.9678 33.3127 12.5824 30.5564 7.88863C34.0385 8.97131 37.1299 11.0449 39.4526 13.856C41.7753 16.6671 43.2289 20.094 43.6356 23.7178H35.3543Z"
		fill="#4980FF"
	/>
</svg>
